<svg height="512pt" viewBox="0 -38 512.001 512" width="512pt" xmlns="http://www.w3.org/2000/svg"><path d="m93.371094 120.085938h30c0-6.46875 1.289062-9.042969 3.417968-13.308594 2.78125-5.558594 6.582032-13.171875 6.582032-26.714844 0-13.546875-3.800782-21.160156-6.582032-26.722656-2.128906-4.265625-3.417968-6.839844-3.417968-13.308594s1.289062-9.042969 3.417968-13.3125c2.78125-5.558594 6.582032-13.171875 6.582032-26.71875h-30c0 6.46875-1.285156 9.042969-3.417969 13.3125-2.777344 5.558594-6.582031 13.171875-6.582031 26.71875s3.804687 21.160156 6.582031 26.71875c2.132813 4.265625 3.417969 6.839844 3.417969 13.3125 0 6.464844-1.285156 9.039062-3.417969 13.304688-2.773437 5.558593-6.582031 13.171874-6.582031 26.71875zm0 0"/><path d="m175.953125 120.085938h30c0-6.46875 1.285156-9.042969 3.417969-13.308594 2.777344-5.558594 6.582031-13.171875 6.582031-26.714844 0-13.546875-3.804687-21.160156-6.582031-26.722656-2.132813-4.265625-3.417969-6.839844-3.417969-13.308594s1.285156-9.042969 3.417969-13.3125c2.777344-5.558594 6.582031-13.171875 6.582031-26.71875h-30c0 6.46875-1.289063 9.042969-3.417969 13.3125-2.777344 5.558594-6.582031 13.171875-6.582031 26.71875s3.804687 21.160156 6.578125 26.71875c2.132812 4.265625 3.421875 6.839844 3.421875 13.3125 0 6.464844-1.289063 9.039062-3.417969 13.304688-2.777344 5.558593-6.582031 13.171874-6.582031 26.71875zm0 0"/><path d="m258.53125 120.085938h30c0-6.46875 1.285156-9.042969 3.417969-13.308594 2.777343-5.558594 6.582031-13.171875 6.582031-26.714844 0-13.546875-3.804688-21.160156-6.582031-26.722656-2.132813-4.265625-3.417969-6.839844-3.417969-13.308594s1.285156-9.042969 3.417969-13.3125c2.777343-5.558594 6.582031-13.171875 6.582031-26.71875h-30c0 6.46875-1.289062 9.042969-3.417969 13.3125-2.777343 5.558594-6.582031 13.171875-6.582031 26.71875s3.804688 21.160156 6.578125 26.71875c2.132813 4.265625 3.421875 6.839844 3.421875 13.3125 0 6.464844-1.289062 9.039062-3.417969 13.304688-2.777343 5.558593-6.582031 13.171874-6.582031 26.71875zm0 0"/><path d="m421.976562 150.109375h-20.089843v60h20.089843c16.582032 0 30.023438 13.441406 30.023438 30.023437 0 16.582032-13.441406 30.027344-30.023438 30.027344h-20.984374c-1.894532 21-6.800782 41.148438-14.300782 60h35.285156c49.640626 0 90.023438-40.386718 90.023438-90.027344 0-49.636718-40.386719-90.023437-90.023438-90.023437zm0 0"/><path d="m371.886719 250.582031v-100.472656h-371.886719v100.472656c0 102.53125 83.414062 185.945313 185.945312 185.945313 102.527344 0 185.941407-83.414063 185.941407-185.945313zm0 0"/></svg>