<svg height="512pt" viewBox="0 -30 512 511" width="512pt" xmlns="http://www.w3.org/2000/svg"><path d="m406.976562 150.621094h-406.976562v105.882812c0 108.046875 87.902344 195.949219 195.953125 195.949219 69.792969 0 131.175781-36.6875 165.894531-91.78125h45.128906c57.910157 0 105.023438-47.113281 105.023438-105.023437 0-57.914063-47.113281-105.027344-105.023438-105.027344zm-15.074218 90h15.074218c8.28125 0 15.023438 6.742187 15.023438 15.023437 0 8.285157-6.742188 15.027344-15.023438 15.027344h-15.589843c.335937-4.683594.515625-9.40625.515625-14.167969zm-195.949219 181.832031c-91.507813 0-165.953125-74.445313-165.953125-165.949219v-75.882812h331.902344v75.882812c0 91.503906-74.445313 165.949219-165.949219 165.949219zm211.023437-91.78125h-29.664062c3.957031-9.644531 7.179688-19.664063 9.574219-30h20.089843c24.824219 0 45.023438-20.199219 45.023438-45.027344 0-24.824219-20.199219-45.023437-45.023438-45.023437h-15.070312v-30h15.070312c41.367188 0 75.023438 33.65625 75.023438 75.023437 0 41.371094-33.65625 75.027344-75.023438 75.027344zm0 0"/><path d="m93.371094 120.585938h30c0-6.46875 1.289062-9.042969 3.417968-13.308594 2.78125-5.558594 6.582032-13.171875 6.582032-26.714844 0-13.546875-3.800782-21.160156-6.582032-26.722656-2.128906-4.265625-3.417968-6.839844-3.417968-13.308594s1.289062-9.046875 3.417968-13.3125c2.78125-5.558594 6.582032-13.171875 6.582032-26.71875h-30c0 6.46875-1.285156 9.042969-3.417969 13.3125-2.777344 5.558594-6.582031 13.171875-6.582031 26.71875 0 13.542969 3.804687 21.15625 6.582031 26.71875 2.132813 4.265625 3.417969 6.839844 3.417969 13.3125 0 6.464844-1.285156 9.039062-3.417969 13.304688-2.773437 5.558593-6.582031 13.171874-6.582031 26.71875zm0 0"/><path d="m175.953125 120.585938h30c0-6.46875 1.285156-9.042969 3.417969-13.308594 2.777344-5.558594 6.582031-13.171875 6.582031-26.714844 0-13.546875-3.804687-21.160156-6.582031-26.722656-2.132813-4.265625-3.417969-6.839844-3.417969-13.308594s1.285156-9.046875 3.417969-13.3125c2.777344-5.558594 6.582031-13.171875 6.582031-26.71875h-30c0 6.46875-1.289063 9.042969-3.417969 13.3125-2.777344 5.558594-6.582031 13.171875-6.582031 26.71875 0 13.542969 3.804687 21.15625 6.578125 26.71875 2.132812 4.265625 3.421875 6.839844 3.421875 13.3125 0 6.464844-1.289063 9.039062-3.417969 13.304688-2.777344 5.558593-6.582031 13.171874-6.582031 26.71875zm0 0"/><path d="m258.53125 120.585938h30c0-6.46875 1.285156-9.042969 3.417969-13.308594 2.777343-5.558594 6.582031-13.171875 6.582031-26.714844 0-13.546875-3.804688-21.160156-6.582031-26.722656-2.132813-4.265625-3.417969-6.839844-3.417969-13.308594s1.285156-9.046875 3.417969-13.3125c2.777343-5.558594 6.582031-13.171875 6.582031-26.71875h-30c0 6.46875-1.289062 9.042969-3.417969 13.3125-2.777343 5.558594-6.582031 13.171875-6.582031 26.71875 0 13.542969 3.804688 21.15625 6.578125 26.71875 2.132813 4.265625 3.421875 6.839844 3.421875 13.3125 0 6.464844-1.289062 9.039062-3.417969 13.304688-2.777343 5.558593-6.582031 13.171874-6.582031 26.71875zm0 0"/></svg>