<svg width="499" height="418" viewBox="0 0 499 418" fill="none" xmlns="http://www.w3.org/2000/svg">
<path d="M51 355.5H413.5L454 383H0L51 355.5Z" fill="#154770"/>
<path d="M55 158.5L243.5 121V148.5L97.5 176L55 158.5Z" fill="#0B263C"/>
<path d="M430 158.5L243.5 121V148.5L387.5 176L430 158.5Z" fill="#0B263C"/>
<path d="M0 383H454L413.5 418H57.5L0 383Z" fill="#061928"/>
<path d="M55 158.31L97.5 176L169.5 383L55 158.31Z" fill="#0B263C"/>
<path d="M430 158.31L387.5 176L315.5 383L430 158.31Z" fill="#0B263C"/>
<path d="M97.5 176H387.5L315.5 383H169.5L97.5 176Z" fill="#0B263C"/>
<path d="M244 140L387.559 176L242.5 222L97.4408 176L244 140Z" fill="#0991FF"/>
<path d="M159.487 121L117 96.8443L140.079 77.425L117 59.6635L140.079 34.5605L117.525 8.74701L159.487 34.5605L140.079 59.6635L159.487 77.425L140.079 96.8443L159.487 121Z" fill="#154770"/>
<path d="M159.487 121L117 96.8443H140.079L159.487 121Z" fill="#0B263C"/>
<path d="M117.525 8.74701L141.915 22.4826L159.487 34.5605L140.079 34.5605L117.525 8.74701Z" fill="#0B263C"/>
<path d="M117 59.6635L140.079 77.425H159.487L140.079 59.6635H117Z" fill="#0B263C"/>
<path d="M262.973 112.253L220.487 88.0973L243.566 68.678L220.487 50.9165L243.566 25.8135L221.011 0L262.973 25.8135L243.566 50.9165L262.973 68.678L243.566 88.0973L262.973 112.253Z" fill="#154770"/>
<path d="M262.973 112.253L220.487 88.0973H243.566L262.973 112.253Z" fill="#0B263C"/>
<path d="M221.011 0L245.402 13.7356L262.973 25.8135L243.566 25.8135L221.011 0Z" fill="#0B263C"/>
<path d="M220.487 50.9164L243.566 68.678H262.973L243.566 50.9164H220.487Z" fill="#0B263C"/>
<path d="M366.46 121L323.973 96.8443L347.052 77.425L323.973 59.6635L347.052 34.5605L324.498 8.74701L366.46 34.5605L347.052 59.6635L366.46 77.425L347.052 96.8443L366.46 121Z" fill="#154770"/>
<path d="M366.46 121L323.973 96.8443H347.052L366.46 121Z" fill="#0B263C"/>
<path d="M324.498 8.74701L348.888 22.4826L366.46 34.5605L347.052 34.5605L324.498 8.74701Z" fill="#0B263C"/>
<path d="M323.973 59.6635L347.052 77.425H366.46L347.052 59.6635H323.973Z" fill="#0B263C"/>
<path d="M407.5 201.5L499 257.5H422.5L391 234L407.5 201.5Z" fill="#0B263C"/>
<path d="M498 257.5L338.5 338L358 298.5L422.5 257.5H498Z" fill="#154770"/>
</svg>
