<svg  viewBox="-30 0 511 511.99965"  xmlns="http://www.w3.org/2000/svg"><path d="m90.5 166v45c-49.625 0-90 40.375-90 90s40.375 90 90 90h1.507812c6.96875 34.191406 37.273438 60 73.492188 60h150c41.355469 0 75-33.644531 75-75v-210c0-8.285156-6.71875-15-15-15h-270c-8.285156 0-15 6.714844-15 15zm-60 135c0-33.082031 26.914062-60 60-60v120c-33.085938 0-60-26.914062-60-60zm165-53.785156 15 15v38.785156h-30v-38.785156zm-75-66.214844h60v38.789062l-25.605469 25.605469c-2.8125 2.8125-4.394531 6.625-4.394531 10.605469v60c0 8.28125 6.714844 15 15 15h60c8.285156 0 15-6.71875 15-15v-60c0-3.980469-1.582031-7.792969-4.394531-10.605469l-25.605469-25.605469v-38.789062h150v195c0 24.8125-20.1875 45-45 45h-150c-24.8125 0-45-20.1875-45-45zm0 0"/><path d="m30.5 497c0 8.285156 6.714844 15 15 15h390c8.28125 0 15-6.714844 15-15s-6.71875-15-15-15h-390c-8.285156 0-15 6.714844-15 15zm0 0"/><path d="m189.5 27c6.625-4.96875 7.96875-14.371094 3-21-4.96875-6.625-14.371094-7.96875-21-3-10.800781 8.101562-17.25 21-17.25 34.5 0 12.667969 11.953125 31.527344 17.25 35.5 3.289062 2.464844 5.25 6.390625 5.25 10.5s-1.960938 8.035156-5.25 10.5c-6.628906 4.972656-7.972656 14.375-3 21 4.996094 6.660156 14.402344 7.949219 21 3 10.800781-8.101562 17.25-20.996094 17.25-34.5 0-12.691406-5.699219-24.851562-15.355469-32.992188-3.457031-4.820312-6.738281-10.855468-7.144531-13.230468.070312-4.027344 2.019531-7.855469 5.25-10.277344zm0 0"/><path d="m249.5 27c6.625-4.96875 7.96875-14.371094 3-21-4.96875-6.625-14.371094-7.96875-21-3-10.800781 8.101562-17.25 21-17.25 34.5 0 12.667969 11.953125 31.527344 17.25 35.5 3.289062 2.464844 5.25 6.390625 5.25 10.5s-1.960938 8.035156-5.25 10.5c-6.628906 4.972656-7.972656 14.375-3 21 4.996094 6.660156 14.402344 7.949219 21 3 10.800781-8.101562 17.25-20.996094 17.25-34.5 0-12.691406-5.699219-24.851562-15.355469-32.992188-3.457031-4.820312-6.738281-10.855468-7.144531-13.230468.070312-4.027344 2.019531-7.855469 5.25-10.277344zm0 0"/><path d="m309.5 27c6.625-4.96875 7.96875-14.371094 3-21-4.96875-6.625-14.371094-7.96875-21-3-10.800781 8.101562-17.25 21-17.25 34.5 0 12.667969 11.953125 31.527344 17.25 35.5 3.289062 2.464844 5.25 6.390625 5.25 10.5s-1.960938 8.035156-5.25 10.5c-6.628906 4.972656-7.972656 14.375-3 21 4.996094 6.660156 14.402344 7.949219 21 3 10.800781-8.101562 17.25-20.996094 17.25-34.5 0-12.691406-5.699219-24.851562-15.355469-32.992188-3.457031-4.820312-6.738281-10.855468-7.144531-13.230468.070312-4.027344 2.019531-7.855469 5.25-10.277344zm0 0"/></svg>