<svg height="511pt" viewBox="-30 0 511 511.99995" width="511pt" xmlns="http://www.w3.org/2000/svg"><path d="m90.5 164.996094v45c-49.628906 0-90 40.371094-90 90s40.371094 90 90 90h1.515625c6.957031 34.222656 37.222656 62.003906 73.488281 62.003906h150c41.402344 0 75.003906-35.601562 75.003906-77.003906v-210c0-8.402344-6.601562-15-15.003906-15h-165v69l25.5 25.5c3 2.699218 4.5 6.601562 4.5 10.5v60c0 8.398437-6.597656 15-15 15h-60c-8.402344 0-15-6.601563-15-15v-60c0-3.898438 1.5-7.800782 4.5-10.5l25.5-25.5v-69h-75.003906c-8.398438 0-15 6.597656-15 15zm-60 135c0-33.089844 26.910156-60 60-60v120c-33.089844 0-60-26.90625-60-60zm0 0"/><path d="m180.503906 261.296875v38.699219h30v-38.699219l-15-15.003906zm0 0"/><path d="m450.507812 497c0-8.292969-6.710937-15-15-15h-390.007812c-8.289062 0-15 6.707031-15 15 0 8.289062 6.710938 15 15 15h390.007812c8.289063 0 15-6.710938 15-15zm0 0"/><path d="m192.5 5.984375c-4.996094-6.621094-14.398438-7.941406-21.007812-2.988281-10.792969 8.113281-17.238282 21.003906-17.238282 34.496094 0 13.492187 6.445313 26.382812 17.238282 34.496093 3.296874 2.476563 5.261718 6.402344 5.261718 10.503907 0 4.101562-1.964844 8.027343-5.261718 10.503906-6.621094 4.980468-7.953126 14.386718-2.988282 21.007812 5 6.625 14.390625 7.949219 21.007813 2.988282 10.796875-8.117188 17.242187-21.007813 17.242187-34.5 0-13.488282-6.445312-26.382813-17.242187-34.496094-3.296875-2.476563-5.257813-6.402344-5.257813-10.503906 0-4.101563 1.960938-8.027344 5.257813-10.503907 6.621093-4.980469 7.953125-14.382812 2.988281-21.003906zm0 0"/><path d="m252.5 5.984375c-4.980469-6.621094-14.382812-7.941406-21.003906-2.988281-10.796875 8.113281-17.242188 21.003906-17.242188 34.496094 0 13.492187 6.445313 26.382812 17.242188 34.496093 3.292968 2.476563 5.257812 6.402344 5.257812 10.503907 0 4.101562-1.964844 8.027343-5.257812 10.503906-6.621094 4.980468-7.957032 14.386718-2.988282 21.007812 4.996094 6.625 14.386719 7.949219 21.003907 2.988282 10.796875-8.117188 17.242187-21.007813 17.242187-34.5 0-13.488282-6.445312-26.382813-17.242187-34.496094-3.292969-2.476563-5.257813-6.402344-5.257813-10.503906 0-4.101563 1.964844-8.027344 5.257813-10.503907 6.621093-4.980469 7.957031-14.382812 2.988281-21.003906zm0 0"/><path d="m312.5 5.984375c-4.964844-6.621094-14.367188-7.941406-21.003906-2.988281-10.796875 8.113281-17.242188 21.003906-17.242188 34.496094 0 13.492187 6.445313 26.382812 17.242188 34.496093 3.296875 2.476563 5.257812 6.402344 5.257812 10.503907 0 4.101562-1.960937 8.027343-5.257812 10.503906-6.621094 4.980468-7.953125 14.386718-2.988282 21.007812 4.996094 6.625 14.386719 7.949219 21.007813 2.988282 10.792969-8.117188 17.238281-21.007813 17.238281-34.5 0-13.488282-6.445312-26.382813-17.238281-34.496094-3.296875-2.476563-5.261719-6.402344-5.261719-10.503906 0-4.101563 1.964844-8.027344 5.261719-10.503907 6.621094-4.980469 7.953125-14.382812 2.984375-21.003906zm0 0"/></svg>