<?xml version="1.0" encoding="iso-8859-1"?>
<!-- Generator: Adobe Illustrator 19.0.0, SVG Export Plug-In . SVG Version: 6.00 Build 0)  -->
<svg version="1.1" id="Layer_1" xmlns="http://www.w3.org/2000/svg" xmlns:xlink="http://www.w3.org/1999/xlink" x="0px" y="0px"
	 viewBox="0 0 511.999 511.999" style="enable-background:new 0 0 511.999 511.999;" xml:space="preserve">
<g>
	<g>
		<path d="M123.695,28.338c-4.748-5.95-8.497-10.649-8.497-20.717V0H99.955v7.621c0,15.403,6.557,23.621,11.826,30.223
			c4.747,5.95,8.497,10.649,8.497,20.717s-3.75,14.766-8.497,20.716c-5.269,6.603-11.826,14.82-11.826,30.223v7.621h15.242V109.5
			c0-10.067,3.75-14.766,8.497-20.717c5.269-6.603,11.826-14.821,11.826-30.223S128.964,34.94,123.695,28.338z"/>
	</g>
</g>
<g>
	<g>
		<path d="M182.633,28.338c-4.747-5.95-8.497-10.649-8.497-20.717V0h-15.242v7.621c0,15.403,6.557,23.621,11.826,30.223
			c4.748,5.95,8.497,10.649,8.497,20.717s-3.75,14.766-8.497,20.716c-5.269,6.603-11.826,14.82-11.826,30.223v7.621h15.242V109.5
			c0-10.067,3.75-14.766,8.497-20.717c5.269-6.603,11.826-14.821,11.826-30.223S187.901,34.94,182.633,28.338z"/>
	</g>
</g>
<g>
	<g>
		<path d="M241.568,28.338c-4.747-5.95-8.497-10.649-8.497-20.717V0h-15.242v7.621c0,15.403,6.557,23.621,11.826,30.223
			c4.747,5.95,8.497,10.649,8.497,20.717s-3.75,14.766-8.497,20.716c-5.269,6.603-11.826,14.82-11.826,30.223v7.621h15.242V109.5
			c0-10.067,3.75-14.766,8.497-20.717c5.269-6.603,11.826-14.821,11.826-30.223S246.837,34.94,241.568,28.338z"/>
	</g>
</g>
<g>
	<g>
		<path d="M300.505,28.338c-4.747-5.95-8.497-10.649-8.497-20.717V0h-15.242v7.621c0,15.403,6.557,23.621,11.826,30.223
			c4.747,5.95,8.497,10.649,8.497,20.717s-3.75,14.766-8.497,20.716c-5.269,6.603-11.826,14.82-11.826,30.223v7.621h15.242V109.5
			c0-10.067,3.75-14.766,8.497-20.717c5.269-6.603,11.826-14.821,11.826-30.223S305.774,34.94,300.505,28.338z"/>
	</g>
</g>
<g>
	<g>
		<path d="M135.52,270.346v-34.694h-15.241v34.694H83.423v88.953h88.952v-88.953H135.52z M157.133,344.057H98.666v-58.468h58.467
			V344.057z"/>
	</g>
</g>
<g>
	<g>
		<path d="M380.942,194.963H362.56v-60.976H49.727v306.162c0,39.618,32.232,71.85,71.85,71.85H290.71
			c39.618,0,71.85-32.232,71.85-71.85V248.653h18.382c15.241,0,27.641,12.4,27.641,27.642v93.65h15.242v-93.65
			c0-23.647-19.237-42.884-42.883-42.884H362.56v-23.204h18.382c36.442,0,66.088,29.648,66.088,66.089v93.65h15.242v-93.651
			C462.273,231.448,425.788,194.963,380.942,194.963z M347.318,194.963v53.689V440.15h-0.001c0,31.214-25.394,56.607-56.607,56.607
			H121.576c-31.214,0-56.607-25.394-56.607-56.607V149.23h55.31v66.097h15.242V149.23h211.797V194.963z"/>
	</g>
</g>
<g>
</g>
<g>
</g>
<g>
</g>
<g>
</g>
<g>
</g>
<g>
</g>
<g>
</g>
<g>
</g>
<g>
</g>
<g>
</g>
<g>
</g>
<g>
</g>
<g>
</g>
<g>
</g>
<g>
</g>
</svg>
