<?xml version="1.0" encoding="iso-8859-1"?>
<!-- Generator: Adobe Illustrator 17.1.0, SVG Export Plug-In . SVG Version: 6.00 Build 0)  -->
<!DOCTYPE svg PUBLIC "-//W3C//DTD SVG 1.1//EN" "http://www.w3.org/Graphics/SVG/1.1/DTD/svg11.dtd">
<svg version="1.1" id="Capa_1" xmlns="http://www.w3.org/2000/svg" xmlns:xlink="http://www.w3.org/1999/xlink" x="0px" y="0px"
	 viewBox="0 0 228.706 228.706" style="enable-background:new 0 0 228.706 228.706;" xml:space="preserve">
<path d="M133.735,146.855h0.771V20.152C134.506,9.023,125.483,0,114.353,0S94.201,9.023,94.201,20.152v126.703h0.771
	c-14.135,7.106-23.84,21.73-23.84,38.63c0,23.871,19.351,43.222,43.222,43.222s43.222-19.351,43.222-43.222
	C157.575,168.585,147.87,153.961,133.735,146.855z M103.374,166.073c-1.844,0.942-17.594,9.677-10.484,29.58
	c0.929,2.601-0.427,5.462-3.027,6.391c-0.556,0.199-1.123,0.293-1.682,0.293c-2.054,0-3.979-1.275-4.709-3.319
	c-8.211-22.987,6.505-37.452,15.433-41.89c2.474-1.228,5.475-0.22,6.703,2.252C106.833,161.846,105.833,164.838,103.374,166.073z
	 M124.089,56.597h-19.471V22.058c0-5.368,4.367-9.735,9.735-9.735s9.735,4.367,9.735,9.735V56.597z"/>
<g>
</g>
<g>
</g>
<g>
</g>
<g>
</g>
<g>
</g>
<g>
</g>
<g>
</g>
<g>
</g>
<g>
</g>
<g>
</g>
<g>
</g>
<g>
</g>
<g>
</g>
<g>
</g>
<g>
</g>
</svg>
